<svg width="85" height="86" viewBox="0 0 85 86" fill="none" xmlns="http://www.w3.org/2000/svg">
<g clip-path="url(#clip0_21_2)">
<path d="M32.9638 34.6232C32.1761 34.6232 31.5376 35.2618 31.5376 36.0494V79.2158C31.5376 80.0034 32.1761 80.642 32.9638 80.642C33.7514 80.642 34.3899 80.0034 34.3899 79.2158V36.0494C34.3899 35.2616 33.7514 34.6232 32.9638 34.6232Z" fill="#FFBA08"/>
<path d="M39.4262 34.6232C38.6385 34.6232 38 35.2618 38 36.0494V79.2158C38 80.0034 38.6385 80.642 39.4262 80.642C40.2138 80.642 40.8524 80.0034 40.8524 79.2158V36.0494C40.8524 35.2616 40.2138 34.6232 39.4262 34.6232Z" fill="#FFBA08"/>
<path d="M45.4262 34.6232C44.6385 34.6232 44 35.2618 44 36.0494V79.2158C44 80.0034 44.6385 80.642 45.4262 80.642C46.2138 80.642 46.8524 80.0034 46.8524 79.2158V36.0494C46.8524 35.2616 46.2138 34.6232 45.4262 34.6232Z" fill="#FFBA08"/>
<path d="M52.0364 34.6232C51.2487 34.6232 50.6102 35.2618 50.6102 36.0494V79.2158C50.6102 80.0034 51.2487 80.642 52.0364 80.642C52.824 80.642 53.4626 80.0034 53.4626 79.2158V36.0494C53.4626 35.2616 52.8238 34.6232 52.0364 34.6232Z" fill="#FFBA08"/>
<path d="M69.0258 82.3528H60.2799V31.6758C60.2799 30.8881 59.6413 30.2496 58.8537 30.2496H57.2278V17.2238C57.2278 16.4361 56.5893 15.7976 55.8017 15.7976H53.3543V5.81429C53.3543 5.02666 52.7158 4.38811 51.9281 4.38811H43.9263C43.9263 4.38811 43.2877 4.38811 42.5001 4.38811C41.0739 4.38811 41.0739 7.14483 41.0739 4.38811H33.0721C32.2844 4.38811 31.6459 5.02666 31.6459 5.81429V15.7976H29.1986C28.4109 15.7976 27.7724 16.4361 27.7724 17.2238V30.2496H26.1465C25.3589 30.2496 24.7203 30.8881 24.7203 31.6758V82.3528H15.9744C15.1868 82.3528 14.5482 82.9914 14.5482 83.779C14.5482 84.5666 15.1868 85.2052 15.9744 85.2052H69.0258C69.8134 85.2052 70.452 84.5666 70.452 83.779C70.452 82.9914 69.8132 82.3528 69.0258 82.3528ZM34.4983 7.24048H50.502V15.7976H49.1663V10.5992C49.1663 9.8116 48.5277 9.17305 47.7401 9.17305C46.9525 9.17305 46.3139 9.8116 46.3139 10.5992V15.7976H43.9263V10.5992C43.9263 9.8116 43.2877 9.17305 42.5001 9.17305C41.7125 9.17305 41.0739 9.8116 41.0739 10.5992V15.7976H38.6865V10.5992C38.6865 9.8116 38.0479 9.17305 37.2603 9.17305C36.4727 9.17305 35.8341 9.8116 35.8341 10.5992V15.7976H34.4985L34.4983 7.24048ZM30.6247 18.6499H54.3755V30.2496H51.7861V20.9001C51.7861 20.1125 51.1475 19.4739 50.3599 19.4739C49.5723 19.4739 48.9337 20.1125 48.9337 20.9001V30.2496H46.5461V20.9001C46.5461 20.1125 45.9075 19.4739 45.1199 19.4739C44.3323 19.4739 43.6937 20.1125 43.6937 20.9001V30.2496H41.3063V20.9001C41.3063 20.1125 40.6677 19.4739 39.8801 19.4739C39.0925 19.4739 38.4539 20.1125 38.4539 20.9001V30.2496H36.0665V20.9001C36.0665 20.1125 35.4279 19.4739 34.6403 19.4739C33.8527 19.4739 33.2141 20.1125 33.2141 20.9001V30.2496H30.6247V18.6499ZM27.5727 82.3528V33.1019H57.4275V82.3528H27.5727Z" fill="#FFBA08"/>
</g>
<defs>
<clipPath id="clip0_21_2">
<rect width="85" height="85" fill="white" transform="translate(0 0.2052)"/>
</clipPath>
</defs>
</svg>
