<svg width="85" height="86" viewBox="0 0 85 86" fill="none" xmlns="http://www.w3.org/2000/svg">
<g clip-path="url(#clip0_14_443)">
<path d="M67.1918 0.2052C58.425 0.2052 51.1048 6.59795 49.6518 14.966L28.8602 14.9657L16.3837 2.61524L11.639 6.34094L20.3516 14.966H7.95738C6.7359 14.966 5.63719 15.7081 5.181 16.8412C4.7248 17.9742 5.00327 19.2707 5.88361 20.117L34.5687 47.6804V79.2194H24.5364C22.8836 79.2194 21.5434 80.5597 21.5434 82.2125C21.5434 83.8652 22.8836 85.2055 24.5364 85.2055H50.5868C52.2392 85.2055 53.5795 83.8652 53.5795 82.2125C53.5795 80.5597 52.2392 79.2194 50.5868 79.2194H40.5542V47.6807L56.5625 32.2983C59.6145 34.5841 63.2961 35.8216 67.1918 35.8216C77.0114 35.8216 85 27.8331 85 18.0134C85 8.19377 77.0114 0.2052 67.1918 0.2052ZM76.8961 24.7542L72.25 20.1084H78.8245C78.5185 21.8107 77.8485 23.387 76.8961 24.7542ZM69.287 12.9552V6.38072C70.9893 6.68638 72.5657 7.35665 73.9328 8.30911L69.287 12.9552ZM65.0969 12.9552L60.4536 8.31197C61.8205 7.35865 63.3963 6.68752 65.0969 6.3813V12.9552ZM69.287 23.0714L73.9328 27.7172C72.5657 28.6696 70.9893 29.3399 69.287 29.6455V23.0714ZM72.25 15.9182L76.8958 11.2724C77.8483 12.6395 78.5185 14.2159 78.8242 15.9182H72.25ZM57.4906 11.2752L61.1814 14.966H55.7715C56.1298 13.6278 56.7182 12.3831 57.4906 11.2752ZM59.7315 20.9518L37.562 42.2547L15.3916 20.9515L59.7315 20.9518ZM65.0969 24.0979V29.6484C63.625 29.3871 62.2283 28.8545 60.9659 28.0675L65.0969 24.0979Z" fill="#FFBA08"/>
</g>
<defs>
<clipPath id="clip0_14_443">
<rect width="85" height="85" fill="white" transform="translate(0 0.2052)"/>
</clipPath>
</defs>
</svg>
