<svg width="85" height="86" viewBox="0 0 85 86" fill="none" xmlns="http://www.w3.org/2000/svg">
<g clip-path="url(#clip0_21_30)">
<path d="M61.9377 19.1106L62.0198 19.7416L61.0741 19.9374L60.9483 21.2817H62.081L63.5879 21.1366L64.3657 20.2119L63.5389 19.8902L63.0862 19.3693L62.4062 18.268L62.081 16.7105L60.8032 16.971L60.4448 17.5199V18.1387L61.0601 18.56L61.9377 19.1106Z" fill="#FFBA08"/>
<path d="M60.8486 19.628L60.9168 18.7855L60.1669 18.4621L59.118 18.705L58.3401 19.9532V20.7625H59.2474L60.8486 19.628Z" fill="#FFBA08"/>
<path d="M39.2599 23.2063L39.0292 23.8007H37.9122V24.3775H38.1779C38.1779 24.3775 38.1936 24.4999 38.2163 24.6607L38.9016 24.603L39.3299 24.3373L39.4417 23.8007L39.9959 23.7535L40.2144 23.3025L39.7057 23.1976L39.2599 23.2063Z" fill="#FFBA08"/>
<path d="M36.3809 24.2534L36.3372 24.8181L37.1465 24.7499L37.2304 24.1835L36.7445 23.8007L36.3809 24.2534Z" fill="#FFBA08"/>
<path d="M84.9895 42.2656C84.9773 41.0227 84.9143 39.7885 84.7972 38.5736C84.4039 34.5233 83.4355 30.6409 81.9846 27.0014C81.8762 26.7304 81.7766 26.456 81.6612 26.1885C79.7278 21.6208 77.0131 17.4622 73.69 13.8734C73.4715 13.6391 73.2495 13.4084 73.0275 13.1811C72.3999 12.5291 71.7549 11.8928 71.0871 11.2827C63.5319 4.40407 53.498 0.2052 42.4991 0.2052C31.4076 0.2052 21.302 4.47924 13.7259 11.4628C11.9603 13.0902 10.3381 14.8663 8.86622 16.7682C3.31434 23.9493 0 32.9448 0 42.7043C0 66.1407 19.0662 85.2052 42.5009 85.2052C58.9852 85.2052 73.2967 75.7656 80.3414 62.0118C81.8482 59.0715 83.0212 55.9372 83.8113 52.6526C84.0123 51.8188 84.1854 50.9814 84.3357 50.1336C84.764 47.7195 84.9983 45.2373 84.9983 42.7043C85 42.5575 84.9913 42.4124 84.9895 42.2656ZM76.9903 25.2795L77.2368 25.0033C77.5602 25.6309 77.8626 26.269 78.1511 26.9157L77.749 26.9L76.9903 27.0049V25.2795ZM70.8494 17.8642L70.8564 15.9658C71.5241 16.6738 72.1674 17.4027 72.7827 18.1579L72.0171 19.2976L69.3408 19.2732L69.173 18.7155L70.8494 17.8642ZM79.6981 31.9135H76.5883L74.6934 30.5028L72.6988 30.6968V31.9135H72.0678L71.386 31.4275L67.9318 30.5517V28.3142L63.5547 28.6551L62.1982 29.384H60.4606L59.6093 29.2984L57.4993 30.4696V32.6739L53.1868 35.7855L53.5452 37.114H54.4192L54.1902 38.3796L53.5749 38.6051L53.5417 41.9124L57.2686 46.1568H58.8908L58.9887 45.8981H61.9045L62.7453 45.1202H64.399L65.3062 46.0292L67.771 46.2844L67.4441 49.562L70.1798 54.3919L68.7394 57.1452L68.8373 58.4422L69.9718 59.5732V62.6918L71.4612 64.6951V67.2857H72.7478C65.5877 76.0768 54.6902 81.7073 42.4974 81.7073C20.9926 81.7091 3.49614 64.2109 3.49614 42.7043C3.49614 37.2905 4.60792 32.1302 6.60946 27.4402V26.2235L8.00442 24.5296C8.48864 23.6154 9.00781 22.7239 9.56195 21.8551L9.62488 22.563L8.00617 24.5296C7.50447 25.4771 7.03599 26.4455 6.61121 27.4402V29.6602L8.23167 30.4399V33.5252L9.78571 36.177L11.0496 36.3711L11.2121 35.4621L9.72103 33.1616L9.4291 30.9258H10.3031L10.672 33.2263L12.8274 36.3711L12.2715 37.3867L13.642 39.4826L17.0455 40.3252V39.7746L18.4072 39.9686L18.2778 40.9405L19.3477 41.1363L20.9996 41.5873L23.3333 44.2461L26.3137 44.4716L26.6057 46.9032L24.5657 48.3296L24.4695 50.5007L24.1776 51.8293L27.1283 55.5229L27.3538 56.7885C27.3538 56.7885 28.4236 57.0787 28.5548 57.0787C28.6841 57.0787 30.9531 58.7971 30.9531 58.7971V65.473L31.7625 65.7002L31.2118 68.7803L32.5736 70.5966L32.3218 73.6487L34.1206 76.811L36.4298 78.8282L38.7513 78.8702L38.9785 78.1238L37.2724 76.6868L37.3703 75.9736L37.6762 75.0996L37.7409 74.2081L36.5871 74.1731L36.005 73.4424L36.963 72.5212L37.0923 71.8255L36.0225 71.5195L36.0854 70.8728L37.6098 70.642L39.9277 69.5285L40.7056 68.1021L43.1372 64.9905L42.5848 62.5572L43.3312 61.2619L45.567 61.33L47.0721 60.1378L47.558 55.4425L49.2275 53.3221L49.5194 51.9604L47.9968 51.4727L46.9917 49.8242L43.5567 49.7893L40.8332 48.7509L40.7039 46.8088L39.7949 45.2198L37.3318 45.1831L35.9089 42.9491L34.645 42.332L34.5804 43.0137L32.2799 43.1501L31.4373 41.9771L29.0372 41.4894L27.0602 43.7741L23.9486 43.2462L23.7231 39.7396L21.4523 39.3515L22.3631 37.6314L22.1026 36.6438L19.1187 38.6383L17.2412 38.4093L16.5717 36.9427L16.9808 35.4306L18.0156 33.5235L20.3983 32.3173L24.9992 32.3155L24.9869 33.7192L26.6406 34.4884L26.5095 32.09L27.7017 30.8909L30.107 29.3106L30.2714 28.1988L32.6697 25.7026L35.2202 24.2901L34.9947 24.1048L36.7217 22.4791L37.3545 22.6469L37.6447 23.0105L38.3003 22.2833L38.4611 22.2117L37.7426 22.1103L37.0137 21.8673V21.1681L37.4 20.8517H38.2513L38.6411 21.023L38.9785 21.7047L39.3911 21.6418V21.5824L39.5099 21.6226L40.7056 21.439L40.8752 20.8552L41.5569 21.0265V21.6593L40.9241 22.0946H40.9259L41.0185 22.7885L43.1844 23.4563C43.1844 23.4563 43.1861 23.465 43.1896 23.4825L43.6878 23.4406L43.721 22.5019L42.0044 21.7205L41.9065 21.2695L43.3312 20.7835L43.3941 19.42L41.9048 18.5128L41.8069 16.214L39.7651 17.2174H39.0205L39.2162 15.4676L36.4368 14.8121L35.2866 15.6809V18.331L33.2186 18.9865L32.39 20.7136L31.4915 20.8587V18.6491L29.5477 18.3799L28.5757 17.7471L28.1842 16.3154L31.6611 14.2807L33.362 13.7632L33.5333 14.9065L34.4807 14.8575L34.5541 14.2824L35.5453 14.1408L35.5628 13.9398L35.1362 13.7632L35.0384 13.1549L36.2568 13.0518L36.9927 12.2861L37.0329 12.2302L37.0416 12.2337L37.2654 12.0029L39.8263 11.6795L40.9591 12.641L37.9891 14.223L41.7684 15.1145L42.2579 13.8507H43.9098L44.4937 12.7494L43.326 12.4574V11.0642L39.6638 9.44201L37.136 9.73394L35.7096 10.4804L35.8075 12.2949L34.3164 12.0676L34.0874 11.0642L35.5156 9.76715L32.9232 9.6378L32.1785 9.8633L31.8551 10.7373L32.827 10.9017L32.633 11.8736L30.9811 11.9715L30.7224 12.6183L28.3258 12.6847C28.3258 12.6847 28.2593 11.3247 28.1632 11.3247C28.067 11.3247 30.0424 11.2915 30.0424 11.2915L31.4705 9.89651L30.6909 9.50669L29.6543 10.5136L27.9342 10.4157L26.8976 8.98926H24.6933L22.3928 10.7076H24.501L24.6933 11.3247L24.1461 11.8334L26.4798 11.8981L26.8364 12.7406L24.209 12.6427L24.0814 11.9942L22.4295 11.6376L21.5537 11.1516L19.5871 11.1674C26.0253 6.47728 33.9423 3.70134 42.4991 3.70134C52.3617 3.70134 61.3731 7.38803 68.2482 13.4451L67.785 14.2737L65.9862 14.9782L65.2276 15.8015L65.4024 16.7612L66.3306 16.8905L66.89 18.289L68.4912 17.644L68.7552 19.5144H68.2727L66.9582 19.3204L65.5003 19.5651L64.0896 21.5579L62.0723 21.8743L61.7804 23.6014L62.6317 23.8024L62.3852 24.9125L60.3819 24.5104L58.5447 24.9125L58.1549 25.9351L58.473 28.0817L59.5516 28.5869L61.3608 28.5764L62.5827 28.4663L62.9551 27.4944L64.864 25.0138L66.1208 25.2708L67.3585 24.152L67.5892 25.0261L70.6343 27.0801L70.262 27.58L68.8898 27.5066L69.4177 28.2548L70.262 28.4401L71.2514 28.0275L71.2304 26.8353L71.6692 26.6151L71.3161 26.241L69.2848 25.1082L68.7499 23.6031H70.4386L70.9787 24.1381L72.4331 25.3914L72.4943 26.907L74.0011 28.5117L74.5623 26.3127L75.6059 25.7428L75.8016 27.5415L76.8208 28.6603L78.8538 28.6254C79.2471 29.6375 79.6002 30.6671 79.9096 31.7177L79.6981 31.9135ZM80.3309 33.8818L80.4533 33.7385C80.504 33.9587 80.5582 34.179 80.6071 34.4027L80.3309 33.8818Z" fill="#FFBA08"/>
<path d="M6.61121 26.2235V27.4402C7.03599 26.4473 7.50447 25.4788 8.00617 24.5296L6.61121 26.2235Z" fill="#FFBA08"/>
</g>
<defs>
<clipPath id="clip0_21_30">
<rect width="85" height="85" fill="white" transform="translate(0 0.2052)"/>
</clipPath>
</defs>
</svg>
