<svg width="85" height="86" viewBox="0 0 85 86" fill="none" xmlns="http://www.w3.org/2000/svg">
<g clip-path="url(#clip0_21_27)">
<path d="M80.1756 64.9503V61.5822C80.1756 58.5135 77.7568 56.0059 74.7263 55.8483V28.3838H78.0784C79.2364 28.3838 80.1756 27.4449 80.1756 26.2866V17.267C80.1756 16.2823 79.4905 15.4302 78.5289 15.2187L42.9506 7.39316C42.6534 7.3278 42.3462 7.3278 42.0494 7.39316L6.47105 15.219C5.50947 15.4305 4.82437 16.2827 4.82437 17.2673V26.2866C4.82437 27.4449 5.76358 28.3838 6.92161 28.3838H10.2737V55.8486C7.24319 56.0059 4.82437 58.5135 4.82437 61.5825V64.9507C2.08571 65.4439 0 67.8393 0 70.7178V75.9689C0 77.1273 0.939217 78.0662 2.09725 78.0662H6.92161H78.0784H82.9027C84.0608 78.0662 85 77.1273 85 75.9689V70.7178C85 67.8393 82.9139 65.4439 80.1756 64.9503ZM9.01886 61.5822C9.01886 60.7251 9.71619 60.0278 10.5733 60.0278H74.4267C75.2838 60.0278 75.9811 60.7251 75.9811 61.5822V64.8521H9.01886V61.5822ZM20.4384 55.8333H14.4682V28.9952H20.4384V55.8333ZM43.6692 28.3838V55.8333H41.3311V28.3838H43.6692ZM53.8342 55.8333H47.8637V28.9952H53.8342V55.8333ZM70.5318 55.8333H64.5616V28.9952H70.5318V55.8333ZM37.1363 28.9952V55.8333H31.1658V28.9952H37.1363ZM4.19449 70.7178C4.19449 69.7964 4.94426 69.047 5.8653 69.047H6.92126H9.01851H75.9808H78.078H79.134C80.0554 69.047 80.8048 69.7967 80.8048 70.7178V73.8717H75.9804H9.01886H4.19449V70.7178ZM60.3671 55.8333H58.0287V28.3838H60.3671V55.8333ZM9.01886 18.9532L42.5 11.5887L75.9811 18.9532V24.189H9.01886V18.9532ZM26.9713 28.3838V55.8333H24.6329V28.3838H26.9713Z" fill="#FFBA08"/>
</g>
<defs>
<clipPath id="clip0_21_27">
<rect width="85" height="85" fill="white" transform="translate(0 0.2052)"/>
</clipPath>
</defs>
</svg>
