<svg width="85" height="86" viewBox="0 0 85 86" fill="none" xmlns="http://www.w3.org/2000/svg">
<path d="M81.7033 78.54H36.6049C39.0502 70.8937 40.4216 61.0022 40.4216 50.6606C40.4216 27.7246 26.2201 9.44616 25.6156 8.67944C25.0718 7.98971 24.2422 7.58732 23.3641 7.58732C22.4861 7.58732 21.6564 7.98971 21.1126 8.67944C20.5082 9.44616 6.3066 27.7249 6.3066 50.6606C6.3066 61.0022 7.67776 70.8937 10.1233 78.54H2.86682C1.28359 78.54 0 79.8236 0 81.4068C0 82.99 1.28359 84.2736 2.86682 84.2736H81.7033C83.2865 84.2736 84.5701 82.99 84.5701 81.4068C84.5701 79.8236 83.2863 78.54 81.7033 78.54ZM30.5499 78.54H26.2309V20.3256C30.0786 27.396 34.688 38.4197 34.688 50.6606C34.688 61.2798 33.1909 71.2981 30.5499 78.54ZM12.0405 50.6606C12.0405 38.4191 16.6503 27.3955 20.4976 20.3256V78.54H16.1786C13.5376 71.2981 12.0405 61.2798 12.0405 50.6606Z" fill="#FFBA08"/>
<path d="M76.2585 23.211C76.2585 15.8592 70.2776 9.87831 62.9258 9.87831C55.574 9.87831 49.5931 15.8592 49.5931 23.211C49.5931 30.5628 55.574 36.5437 62.9258 36.5437C70.2776 36.5437 76.2585 30.5628 76.2585 23.211ZM62.9258 30.8104C58.7356 30.8104 55.3265 27.4012 55.3265 23.211C55.3265 19.0208 58.7356 15.6117 62.9258 15.6117C67.116 15.6117 70.5251 19.0208 70.5251 23.211C70.5251 27.4012 67.116 30.8104 62.9258 30.8104Z" fill="#FFBA08"/>
<path d="M62.9257 9.24835C64.509 9.24835 65.7925 7.96477 65.7925 6.38153V4.00296C65.7925 2.41973 64.509 1.13615 62.9257 1.13615C61.3425 1.13615 60.0589 2.41973 60.0589 4.00296V6.38153C60.0589 7.96477 61.3425 9.24835 62.9257 9.24835Z" fill="#FFBA08"/>
<path d="M60.0589 40.0399V42.4184C60.0589 44.0017 61.3425 45.2852 62.9257 45.2852C64.509 45.2852 65.7925 44.0017 65.7925 42.4184V40.0399C65.7925 38.4566 64.509 37.173 62.9257 37.173C61.3425 37.1733 60.0589 38.4569 60.0589 40.0399Z" fill="#FFBA08"/>
<path d="M76.8878 23.211C76.8878 24.7942 78.1714 26.0778 79.7546 26.0778H82.1332C83.7164 26.0778 85 24.7942 85 23.211C85 21.6278 83.7164 20.3442 82.1332 20.3442H79.7546C78.1716 20.3442 76.8878 21.6281 76.8878 23.211Z" fill="#FFBA08"/>
<path d="M43.7183 26.0778H46.0969C47.6801 26.0778 48.9637 24.7942 48.9637 23.211C48.9637 21.6278 47.6801 20.3442 46.0969 20.3442H43.7183C42.1351 20.3442 40.8515 21.6278 40.8515 23.211C40.8515 24.7942 42.1351 26.0778 43.7183 26.0778Z" fill="#FFBA08"/>
<path d="M74.8255 14.1781C75.5593 14.1781 76.2928 13.8982 76.8526 13.3384L78.5345 11.6564C79.6541 10.5368 79.6541 8.72151 78.5345 7.6022C77.4147 6.48289 75.5999 6.48289 74.4803 7.6022L72.7983 9.28417C71.6787 10.4038 71.6787 12.2191 72.7983 13.3384C73.3581 13.8982 74.0917 14.1781 74.8255 14.1781Z" fill="#FFBA08"/>
<path d="M48.9989 33.0836L47.317 34.7656C46.1974 35.8852 46.1974 37.7005 47.317 38.8198C47.8768 39.3793 48.6103 39.6595 49.3441 39.6595C50.0779 39.6595 50.8114 39.3796 51.3712 38.8198L53.0532 37.1378C54.1728 36.0182 54.1728 34.2029 53.0532 33.0836C51.9336 31.9643 50.1188 31.9643 48.9989 33.0836Z" fill="#FFBA08"/>
<path d="M74.4803 38.8198C75.0401 39.3793 75.7736 39.6595 76.5074 39.6595C77.2412 39.6595 77.9747 39.3796 78.5345 38.8198C79.6541 37.7002 79.6541 35.8849 78.5345 34.7656L76.8526 33.0836C75.7327 31.9643 73.9179 31.9643 72.7983 33.0836C71.6787 34.2032 71.6787 36.0185 72.7983 37.1378L74.4803 38.8198Z" fill="#FFBA08"/>
<path d="M48.9989 13.3387C49.5587 13.8982 50.2923 14.1784 51.0261 14.1784C51.7599 14.1784 52.4934 13.8985 53.0532 13.3387C54.1728 12.2191 54.1728 10.4038 53.0532 9.28446L51.3712 7.60249C50.2513 6.48318 48.4366 6.48318 47.317 7.60249C46.1974 8.72209 46.1974 10.5374 47.317 11.6567L48.9989 13.3387Z" fill="#FFBA08"/>
</svg>
